<svg width="626" height="234" viewBox="0 0 626 234" fill="none" xmlns="http://www.w3.org/2000/svg">
<path d="M434.8 98.4C434.1 99.1 433.8 100 433.8 100.8C433.8 101.7 434.1 102.5 434.8 103.2C435.5 103.9 436.4 104.2 437.2 104.2C438.1 104.2 438.9 103.9 439.6 103.2L450.2 92.9C450.9 92.3 451.2 91.4 451.2 90.4C451.2 89.5 450.8 88.6 450.2 87.9L439.6 77.6C438.9 77 438.1 76.6 437.2 76.6C436.3 76.6 435.4 76.9 434.8 77.6C434.2 78.3 433.8 79.1 433.8 80C433.8 80.9 434.1 81.8 434.8 82.4L442.9 90.2L434.8 98.4ZM360 125.4C360.1 125.4 360.3 125.4 360.4 125.4C369.7 124.2 377.8 121.1 384.4 117.2C391 121.5 399.1 125.2 408 126.5C408.2 126.5 408.3 126.5 408.5 126.5C410.1 126.5 411.5 125.3 411.8 123.7C411.8 123.5 411.8 123.4 411.8 123.2C411.8 121.6 410.6 120.2 409 119.9C402.2 118.9 395.9 116.4 390.5 113.1L390.6 113C398.2 107.2 405.5 100.7 408.1 95.4C408.7 94.3 409.3 92.9 409.3 91C409.3 90.4 409.2 89.6 408.9 88.9C408.5 87.8 407.5 86.7 406.4 86.1C405.3 85.5 404.1 85.3 402.9 85.3H369.8L373.9 78.6C374.2 78.1 374.4 77.5 374.4 76.9C374.4 75.8 373.8 74.7 372.8 74.1C372.3 73.8 371.7 73.6 371.1 73.6C370 73.6 368.9 74.2 368.3 75.2L361.1 87C360.8 87.5 360.6 88.1 360.6 88.7C360.6 89.3 360.7 89.8 361 90.3C361.6 91.3 362.7 92 363.9 92H402.3C401.2 93.9 399 96.5 396.4 99.1C393.5 102 390 105 386.6 107.6C385.9 108.1 385.3 108.6 384.6 109.1C378.7 104.7 374.2 99.7 371.8 96.2C371.2 95.3 370.1 94.8 369.1 94.8C368.4 94.8 367.8 95 367.2 95.4C366.3 96 365.8 97.1 365.8 98.1C365.8 98.7 366 99.4 366.4 100C369 103.7 373.1 108.4 378.6 112.8C373.2 115.6 366.9 117.8 359.6 118.8C357.9 119 356.7 120.5 356.7 122.1C356.7 122.2 356.7 122.4 356.7 122.5C356.9 124.2 358.3 125.4 360 125.4ZM348 116.1C348 117.9 349.5 119.4 351.3 119.4C353.1 119.4 354.6 117.9 354.6 116.1V88.7C354.6 86.9 353.1 85.4 351.3 85.4C349.5 85.4 348 86.9 348 88.7V116.1ZM486.8 89.3H513.9C515.7 89.3 517.2 87.8 517.2 86C517.2 84.2 515.7 82.7 513.9 82.7H492.1L494.2 78.4C494.4 77.9 494.5 77.4 494.5 77C494.5 75.8 493.8 74.6 492.6 74C492.1 73.8 491.7 73.7 491.2 73.7C490 73.7 488.8 74.4 488.2 75.6L483.9 84.6C483.7 85.1 483.6 85.5 483.6 86C483.6 86.6 483.8 87.2 484.1 87.8C484.6 88.8 485.7 89.3 486.8 89.3ZM482.4 103.1C482.4 101.3 480.9 99.8 479.1 99.8H467.3C467.3 98.4 467.3 97.2 467.3 96C467.3 94.4 467.3 93 467.3 91.9H476.9C477.8 91.9 478.6 91.5 479.3 90.9C479.9 90.3 480.3 89.4 480.3 88.5V77C480.3 75.2 478.8 73.7 477 73.7C475.2 73.7 473.7 75.2 473.7 77V85.3H456.9C455.1 85.3 453.6 86.8 453.6 88.6C453.6 90.4 455.1 91.9 456.9 91.9H460.8C460.8 92.9 460.8 94.3 460.8 96C460.8 101.2 460.6 109.1 459.6 117.3C458.6 125.4 456.8 133.8 453.8 139.5C453.6 140 453.4 140.5 453.4 141C453.4 142.2 454.1 143.4 455.2 144C455.7 144.2 456.2 144.4 456.7 144.4C457.9 144.4 459.1 143.7 459.7 142.6C463.2 135.6 465.1 126.7 466.1 118.2C466.6 114.1 466.9 110.2 467.1 106.6H475.7C475.6 109.3 475.5 113.4 475.1 118.1C474.5 125.8 473.2 135.2 470.9 143C470.8 143.3 470.8 143.6 470.8 144C470.8 145.4 471.7 146.8 473.2 147.2C473.5 147.3 473.8 147.3 474.1 147.3C475.5 147.3 476.9 146.4 477.3 144.9C479.8 136.3 481.1 126.6 481.7 118.6C482.3 110.5 482.4 104.2 482.4 103.1ZM491.8 139.4C490 139.4 488.5 140.9 488.5 142.7C488.5 144.5 490 146 491.8 146H500.9C504.1 146 506.6 143.4 506.6 140.2V122.3H513.7C515.5 122.3 517 120.8 517 119C517 117.2 515.5 115.7 513.7 115.7H506.7V109.1L512.5 99C512.8 98.5 512.9 97.9 512.9 97.3C512.9 96.7 512.8 96.1 512.5 95.6C511.9 94.6 510.8 93.9 509.6 93.9H490.2C488.4 93.9 486.9 95.4 486.9 97.2C486.9 99 488.4 100.5 490.2 100.5H503.9L500.5 106.4C500.2 106.9 500.1 107.5 500.1 108.1V115.6H487.7C485.9 115.6 484.4 117.1 484.4 118.9C484.4 120.7 485.9 122.2 487.7 122.2H500.1V139.2H491.8V139.4ZM346.5 74C346 73.7 345.5 73.6 345 73.6C343.8 73.6 342.7 74.2 342.1 75.4C339.5 80.4 333.6 89.8 323.7 97.8C322.9 98.5 322.5 99.4 322.5 100.4C322.5 101.1 322.7 101.9 323.2 102.5C323.9 103.3 324.8 103.7 325.8 103.7C326.5 103.7 327.3 103.5 327.9 103C330.1 101.3 332 99.5 333.8 97.7V122.5C333.8 124.3 335.3 125.8 337.1 125.8C338.9 125.8 340.4 124.3 340.4 122.5V90.2C344 85.6 346.4 81.5 348 78.6C348.3 78.1 348.4 77.6 348.4 77.1C348.2 75.8 347.6 74.6 346.5 74ZM408.1 133.3C407.6 132 406.3 131.2 405 131.2C404.6 131.2 404.2 131.3 403.8 131.4C402.5 131.9 401.7 133.2 401.7 134.5C401.7 134.9 401.8 135.3 401.9 135.7L408.9 153.7C409.4 155 410.7 155.8 412 155.8C412.4 155.8 412.8 155.7 413.2 155.6C414.5 155.1 415.3 153.8 415.3 152.5C415.3 152.1 415.2 151.7 415.1 151.3L408.1 133.3ZM514.6 150.6C466.5 150.6 466.5 150.6 466.4 150.6C459.5 150.6 455.4 148.3 452.8 146.1C451.2 144.8 450.2 143.4 449.7 142.6V116.6C449.7 112.2 446.2 108.7 441.8 108.7H435C433.2 108.7 431.7 110.2 431.7 112C431.7 113.8 433.2 115.3 435 115.3H441.5C442.4 115.3 443.1 116 443.1 116.9V140.4C443.1 142.2 442.5 144.5 441.1 146.4C439.8 148.4 437.8 150 435.2 150.9C433.8 151.4 432.9 152.7 432.9 154.1C432.9 154.4 432.9 154.8 433.1 155.1C433.6 156.5 434.9 157.4 436.3 157.4C436.6 157.4 437 157.3 437.3 157.2C441.5 155.9 444.7 153.2 446.7 150.1C446.8 149.9 446.9 149.8 447 149.6C447.5 150.1 448 150.6 448.6 151.1C452.2 154.2 458 157.2 466.4 157.2H466.5C466.7 157.2 466.7 157.2 514.7 157.2C516.5 157.2 518 155.7 518 153.9C518 152.1 516.4 150.6 514.6 150.6ZM336.9 131.2C335 131.2 333.5 132.7 333.5 134.6V134.7C333.5 135.1 333.5 137.6 332.9 140.7C332.3 143.9 331.1 147.7 329 150.7C328.6 151.3 328.4 151.9 328.4 152.6C328.4 153.7 328.9 154.7 329.9 155.4C330.5 155.8 331.1 156 331.8 156C332.9 156 333.9 155.5 334.6 154.5C337.5 150.3 338.8 145.7 339.5 142C340.2 138.3 340.2 135.4 340.2 134.8C340.2 134.7 340.2 134.7 340.2 134.7C340.3 132.6 338.8 131.2 336.9 131.2ZM591 128.6C591.7 129.4 592.7 129.7 593.6 129.7C594.5 129.7 595.3 129.4 596 128.8C596.8 128.1 597.1 127.1 597.1 126.2C597.1 125.3 596.8 124.5 596.2 123.8L583.3 109.8C582.6 109.1 581.7 108.7 580.7 108.7C579.7 108.7 578.8 109.1 578.1 109.8L565.2 123.8C564.6 124.5 564.3 125.3 564.3 126.2C564.3 127.2 564.7 128.1 565.4 128.8C566.1 129.4 566.9 129.7 567.8 129.7C568.8 129.7 569.7 129.3 570.4 128.6L580.7 117.4L591 128.6ZM565.8 78C565.8 76.7 565 75.4 563.8 74.8C563.3 74.6 562.8 74.5 562.4 74.5C561.1 74.5 559.8 75.3 559.2 76.5C558.2 78.7 555.7 83.5 551.5 89.3C547.3 95.1 541.4 101.8 533.6 108.1C532.7 108.8 532.3 109.8 532.3 110.8C532.3 111.6 532.6 112.3 533.1 113C533.8 113.9 534.8 114.3 535.8 114.3C536.6 114.3 537.3 114 538 113.5C542 110.3 545.6 106.9 548.7 103.6V154C548.7 155.9 550.3 157.5 552.2 157.5C554.1 157.5 555.7 155.9 555.7 154V95.5C556.2 94.8 556.7 94.1 557.2 93.5C561.7 87.3 564.4 82.2 565.6 79.5C565.7 79 565.8 78.5 565.8 78ZM622 93.2H612.3V78C612.3 76.1 610.7 74.5 608.8 74.5C606.9 74.5 605.3 76.1 605.3 78V93.2H564.4C562.5 93.2 560.9 94.8 560.9 96.7C560.9 98.6 562.5 100.2 564.4 100.2H605.3V140.9C605.3 143.8 604.1 146.5 602.2 148.4C600.3 150.3 597.7 151.5 594.7 151.5C591.8 151.5 589.1 150.3 587.2 148.4C585.3 146.5 584.1 143.9 584.1 140.9V131.1C584.1 129.2 582.5 127.6 580.6 127.6C578.7 127.6 577.1 129.2 577.1 131.1V140.9C577.1 150.6 585 158.4 594.6 158.4C604.3 158.4 612.1 150.5 612.1 140.9V100.2H621.8C623.7 100.2 625.3 98.6 625.3 96.7C625.5 94.8 623.9 93.2 622 93.2ZM396.7 132.7C395.6 131.7 394.1 131.2 392.5 131.2H369.6C367.7 131.2 366.2 132.7 366.2 134.6C366.2 135 366.3 135.5 366.4 135.9L370.3 145.8C370.8 147.1 372.1 147.9 373.4 147.9C373.8 147.9 374.2 147.8 374.6 147.7C375.9 147.2 376.7 145.9 376.7 144.6C376.7 144.2 376.6 143.8 376.5 143.4L374.4 138.1H391.8V149.8C391.8 150.4 391.3 150.8 390.8 150.8H355.7C355.1 150.8 354.7 150.3 354.7 149.8V129C354.7 127.1 353.2 125.6 351.3 125.6C349.4 125.6 347.9 127.1 347.9 129V150C347.9 154.1 351.3 157.5 355.4 157.5H391.1C395.3 157.5 398.6 154.1 398.6 150V137.2C398.7 135.2 397.8 133.7 396.7 132.7Z" fill="black"/>
<path d="M339.4 213.2H355C356.6 213.2 357.8 213.9 357.8 215.6C357.8 217.2 356.6 217.9 355 217.9H336.7C334.6 217.9 333.6 216.7 333.6 215.1V179.8C333.6 178.3 334.5 177 336.7 177H355C356.6 177 357.8 177.7 357.8 179.4C357.8 181 356.6 181.7 355 181.7H339.4V195.1H353.3C354.9 195.1 356.1 195.8 356.1 197.5C356.1 199.1 354.9 199.9 353.3 199.9H339.4V213.2V213.2Z" fill="black"/>
<path d="M390.3 215.8C390.3 217.6 388.7 218.3 387.6 218.3C386.4 218.3 384.9 217.6 384.9 215.8V213.7H384.8C382.3 216.8 379.1 218.3 375.4 218.3C365.6 218.3 360.2 210.8 360.2 202.7C360.2 194.6 365.7 187.1 375.4 187.1C379.4 187.1 382.2 188.6 384.8 191.2H384.9V189.6C384.9 187.8 386.4 187.1 387.6 187.1C388.7 187.1 390.3 187.8 390.3 189.6V215.8ZM375.4 213.9C382.4 213.9 384.9 207.8 384.9 202.7C384.9 197.5 382.4 191.5 375.4 191.5C368.4 191.5 365.9 197.6 365.9 202.7C365.9 207.8 368.4 213.9 375.4 213.9Z" fill="black"/>
<path d="M408.3 187.1C413 187.1 419.8 189.3 419.8 192.5C419.8 193.6 419 194.6 417.2 194.6C414.7 194.6 413.8 191.5 408.3 191.5C405 191.5 402.3 192.8 402.3 195.3C402.3 200.6 420.8 200.1 420.8 208.9C420.8 215.3 414.6 218.3 408.2 218.3C400.9 218.3 395.2 215.1 395.2 212.5C395.2 211.1 396.3 210.2 397.5 210.2C400 210.2 402.1 213.9 408.4 213.9C412.6 213.9 415.1 211.8 415.1 209.8C415.1 203.8 396.6 204.2 396.6 195.7C396.6 190 402.6 187.1 408.3 187.1Z" fill="black"/>
<path d="M424.3 192C423.7 190.3 423.5 189.8 423.5 189.2C423.5 187.9 424.8 187.1 426.1 187.1C427.5 187.1 428.6 187.9 429 189L436.9 209.9H437L444.8 189C445.2 187.9 446.1 187.1 447.5 187.1C448.8 187.1 450.1 188 450.1 189.2C450.1 189.8 450 190.3 449.3 192L434.9 228.4C434.4 229.5 433.5 230.3 432.1 230.3C430.8 230.3 429.5 229.4 429.5 228.2C429.5 227.6 429.6 227.1 430.3 225.4L433.9 216.9L424.3 192Z" fill="black"/>
<path d="M478.6 189.1C479.2 187.6 480.1 187.1 481.5 187.1C482.9 187.1 483.8 187.6 484.4 189.1C486.7 194.9 494.6 211.8 494.6 211.8H494.7L500.8 179.2C501.1 177.5 502.2 176.8 503.9 176.8C505.5 176.8 506.5 177.8 506.5 179.1C506.5 179.7 499.2 215 499.2 215C498.8 216.8 498 218.3 495.1 218.3C492.9 218.3 491.7 217.7 490.6 215C488.6 209.9 481.6 195.4 481.6 195.4H481.5C481.5 195.4 474.5 210 472.5 215C471.4 217.7 470.2 218.3 468 218.3C465.1 218.3 464.3 216.8 463.9 215C463.9 215 456.6 179.7 456.6 179.1C456.6 177.8 457.6 176.8 459.2 176.8C461 176.8 462 177.5 462.3 179.2L468.3 211.8H468.4C468.4 211.7 476.3 194.9 478.6 189.1Z" fill="black"/>
<path d="M538 215.8C538 217.6 536.4 218.3 535.3 218.3C534.1 218.3 532.6 217.6 532.6 215.8V213.7H532.5C530 216.8 526.8 218.3 523.1 218.3C513.3 218.3 507.9 210.8 507.9 202.7C507.9 194.6 513.4 187.1 523.1 187.1C527.1 187.1 529.9 188.6 532.5 191.2H532.6V189.6C532.6 187.8 534.1 187.1 535.3 187.1C536.4 187.1 538 187.8 538 189.6V215.8ZM523.1 213.9C530.1 213.9 532.6 207.8 532.6 202.7C532.6 197.5 530.1 191.5 523.1 191.5C516.1 191.5 513.6 197.6 513.6 202.7C513.6 207.8 516 213.9 523.1 213.9Z" fill="black"/>
<path d="M550.7 215.6C550.7 217.3 549.6 218.3 547.8 218.3C546 218.3 544.9 217.3 544.9 215.6V179.5C544.9 177.8 546 176.8 547.8 176.8C549.6 176.8 550.7 177.8 550.7 179.5V215.6Z" fill="black"/>
<path d="M564 215.6C564 217.3 562.9 218.3 561.1 218.3C559.3 218.3 558.2 217.3 558.2 215.6V179.5C558.2 177.8 559.3 176.8 561.1 176.8C562.9 176.8 564 177.8 564 179.5V215.6Z" fill="black"/>
<path d="M574.7 204.6C574.7 209.8 578.5 213.9 584.9 213.9C592.5 213.9 594.5 209.8 596.6 209.8C597.6 209.8 598.7 210.6 598.7 212C598.7 214.5 591.6 218.2 584.9 218.2C573.8 218.2 569 210.7 569 202.6C569 194.3 574.9 187 584.5 187C593.9 187 599.4 194.5 599.4 201.9C599.4 203.7 598.7 204.6 596.2 204.6H574.7V204.6ZM593.7 200.8C593.7 196.4 590.8 191.4 584.5 191.4C577.4 191.2 574.9 196.2 574.7 200.8H593.7Z" fill="black"/>
<path d="M606.7 179.4C606.7 177.7 607.8 176.7 609.6 176.7C611.4 176.7 612.5 177.7 612.5 179.4V187H615.3C617.2 187 618.2 187.8 618.2 189.2C618.2 190.6 617.2 191.4 615.3 191.4H612.5V215.5C612.5 217.2 611.4 218.2 609.6 218.2C607.8 218.2 606.7 217.2 606.7 215.5V191.4H603.9C602 191.4 601 190.6 601 189.2C601 187.8 602 187 603.9 187H606.7V179.4Z" fill="black"/>
<path d="M139.8 170.3C148.8 169.8 157.3 188.4 161.1 193.8C163.5 197.3 166 198.4 168.7 201.7C169.6 202.8 174.4 205.4 175.9 205.5C185 206.4 190.7 203.3 195 202.1C200.8 200.5 204.4 200.3 209.3 197.4C213.9 194.6 249.2 179.8 251.1 191.8C252.6 201 227.2 216 221.6 219.8C220.4 220.6 220 222.7 218.6 223.3C212.3 226.2 187.8 235.8 179.4 233.7C166.9 230.6 150.9 202.3 145.8 191.5C144.8 189.8 133.3 170.6 139.8 170.3Z" fill="#EC008C"/>
<path d="M196.5 179.6C193.3 177.8 192.1 173.8 193.9 170.5C201.5 156.8 206 141.2 206.3 124.5C206.3 123.8 206.3 123.2 206.3 122.5C206.3 103.1 200.7 85 191 69.7C181.3 54.4 167.5 41.9 151.1 33.8C147.8 32.2 146.4 28.2 148.1 24.9C149.7 21.6 153.7 20.2 157 21.9C175.6 31.1 191.3 45.2 202.3 62.6C213.3 80 219.7 100.6 219.7 122.6C219.7 123.4 219.7 124.1 219.7 124.9C219.3 143.8 214.3 161.6 205.6 177.1C204.4 179.3 202.1 180.5 199.8 180.5C198.7 180.5 197.5 180.2 196.5 179.6Z" fill="#EC008C"/>
<path d="M281.1 104.2C273.8 75.7 258.4 50.2 237.2 30.6C234.5 28.1 230.3 28.3 227.8 31C225.3 33.7 225.5 37.9 228.2 40.4C239.3 50.7 248.6 62.7 255.8 76C233.6 58.1 205.7 47.9 176.5 47.9C164.9 47.9 153.2 49.5 141.5 52.9C111 61.7 86.3 81 70.4 105.7C68.4 108.8 69.3 112.9 72.4 114.9C73.5 115.6 74.8 116 76 116C78.2 116 80.3 114.9 81.6 112.9C95.9 90.8 117.9 73.5 145.2 65.7C155.6 62.7 166.2 61.3 176.5 61.3C206.8 61.3 235.7 73.6 256.6 94.7C256 94.7 255.5 94.7 254.9 94.7C246.2 94.7 239.1 97 234.1 99.2C229.1 101.5 226.2 103.8 225.9 104C223 106.3 222.6 110.5 224.9 113.4C226.2 115 228.2 115.9 230.1 115.9C231.6 115.9 233 115.4 234.3 114.4C234.3 114.4 234.3 114.4 234.4 114.3C234.9 113.9 237.2 112.3 240.8 110.8C244.4 109.3 249.3 107.9 255 107.9C260 107.9 265.6 108.9 271.9 111.9C274.2 113 277 112.7 279 111C280.9 109.3 281.8 106.7 281.1 104.2Z" fill="#2DA343"/>
<path d="M152.6 138.2C165.358 138.2 175.7 127.858 175.7 115.1C175.7 102.342 165.358 92 152.6 92C139.842 92 129.5 102.342 129.5 115.1C129.5 127.858 139.842 138.2 152.6 138.2Z" fill="#EC008C"/>
<path d="M13.4 135.6C13.6 139.3 10.7 142.4 7 142.5C3.3 142.7 0.199991 139.8 0.0999908 136.1C-9.15676e-06 134.2 0 132.4 0 130.5C0 99.9 12 71.9 31.7 51.2C49.3 32.7 73.1 19.9 99.9 16.4C91.5 14.3 82.7 13.3 73.8 13.3C69.5 13.3 65.1 13.6 60.7 14.1C57 14.5 53.7 11.9 53.3 8.3C52.9 4.6 55.5 1.29999 59.1 0.899994C64 0.299994 68.9 0 73.8 0C97.1 0 119.4 6.6 138.6 18.2C140.7 19.4 141.9 21.7 141.8 24.1C141.7 26.5 140.3 28.7 138.2 29.8C124.4 36.9 112.3 46.8 102.7 58.8C101.4 60.4 99.5 61.3 97.5 61.3C96 61.3 94.5 60.8 93.3 59.8C90.4 57.5 90 53.3 92.3 50.4C98.9 42.3 106.4 35 114.8 28.8C113.3 28.8 111.8 28.8 110.3 28.9C83 30.2 58.8 42.1 41.3 60.5C23.9 78.9 13.3 103.6 13.3 130.6C13.3 132.3 13.3 133.9 13.4 135.6Z" fill="#0082C4"/>
<path d="M79.3 133.1C75.9 131.7 72 133.3 70.6 136.6C64.6 150.8 61.6 165.9 61.6 180.9C61.6 181.4 61.6 181.9 61.6 182.4C52.6 162.8 47.2 139.1 47.2 113.5C47.2 112.8 47.2 112.1 47.2 111.5C47.5 85.1 53.7 60 63.5 40C65.1 36.7 63.7 32.7 60.4 31.1C57.1 29.5 53.1 30.8 51.5 34.2C40.8 56.1 34.2 83.1 33.8 111.4C33.8 112.1 33.8 112.9 33.8 113.6C33.8 143.3 40.5 170.8 52 193.3C38.2 183.8 26.8 170.9 19.2 155.6C17.5 152.3 13.5 151 10.2 152.6C6.89999 154.3 5.59999 158.3 7.19999 161.6C20.3 187.6 42.9 207.7 70.2 217.4C70.9 217.7 71.7 217.8 72.4 217.8C74.1 217.8 75.7 217.2 77 216C78.8 214.3 79.5 211.7 78.8 209.3C76.1 200.1 74.7 190.5 74.7 180.9C74.7 167.6 77.3 154.3 82.6 141.8C84.3 138.4 82.7 134.5 79.3 133.1Z" fill="#FAAB54"/>
</svg>
