<svg width="500" height="500" viewBox="0 0 500 500" fill="none" xmlns="http://www.w3.org/2000/svg">
<rect width="500" height="500" rx="250" fill="white"/>
<g clip-path="url(#clip0_451_261)">
<path d="M374.557 309.961L361.52 231.836C360.25 224.316 353.756 218.799 346.09 218.799H226.559V187.549H273.434C277.731 187.549 281.246 184.033 281.246 179.736V132.812C281.246 128.516 277.731 125 273.434 125H148.434C144.137 125 140.621 128.516 140.621 132.812V179.688C140.621 183.984 144.137 187.5 148.434 187.5H195.309V218.75H153.854C146.237 218.75 139.694 224.268 138.424 231.787L125.387 309.912C125.094 311.621 124.948 313.33 124.948 315.039V359.375C124.948 368.018 131.93 375 140.573 375H359.322C367.965 375 374.947 368.018 374.947 359.375V315.088C374.996 313.379 374.85 311.67 374.557 309.961V309.961ZM261.715 246.094C261.715 241.797 265.231 238.281 269.528 238.281H277.34C281.637 238.281 285.153 241.797 285.153 246.094V253.906C285.153 258.203 281.637 261.719 277.34 261.719H269.528C265.231 261.719 261.715 258.203 261.715 253.906V246.094ZM246.09 277.344H253.903C258.199 277.344 261.715 280.859 261.715 285.156V292.969C261.715 297.266 258.199 300.781 253.903 300.781H246.09C241.793 300.781 238.278 297.266 238.278 292.969V285.156C238.278 280.859 241.793 277.344 246.09 277.344ZM230.465 238.281C234.762 238.281 238.278 241.797 238.278 246.094V253.906C238.278 258.203 234.762 261.719 230.465 261.719H222.653C218.356 261.719 214.84 258.203 214.84 253.906V246.094C214.84 241.797 218.356 238.281 222.653 238.281H230.465ZM164.059 164.062V148.438H257.809V164.062H164.059ZM183.59 261.719H175.778C171.481 261.719 167.965 258.203 167.965 253.906V246.094C167.965 241.797 171.481 238.281 175.778 238.281H183.59C187.887 238.281 191.403 241.797 191.403 246.094V253.906C191.403 258.203 187.887 261.719 183.59 261.719ZM191.403 292.969V285.156C191.403 280.859 194.918 277.344 199.215 277.344H207.028C211.324 277.344 214.84 280.859 214.84 285.156V292.969C214.84 297.266 211.324 300.781 207.028 300.781H199.215C194.918 300.781 191.403 297.266 191.403 292.969ZM296.871 347.656C296.871 349.805 295.114 351.562 292.965 351.562H207.028C204.879 351.562 203.121 349.805 203.121 347.656V339.844C203.121 337.695 204.879 335.938 207.028 335.938H292.965C295.114 335.938 296.871 337.695 296.871 339.844V347.656ZM308.59 292.969C308.59 297.266 305.074 300.781 300.778 300.781H292.965C288.668 300.781 285.153 297.266 285.153 292.969V285.156C285.153 280.859 288.668 277.344 292.965 277.344H300.778C305.074 277.344 308.59 280.859 308.59 285.156V292.969ZM332.028 253.906C332.028 258.203 328.512 261.719 324.215 261.719H316.403C312.106 261.719 308.59 258.203 308.59 253.906V246.094C308.59 241.797 312.106 238.281 316.403 238.281H324.215C328.512 238.281 332.028 241.797 332.028 246.094V253.906Z" fill="url(#paint0_linear_451_261)"/>
</g>
<defs>
<linearGradient id="paint0_linear_451_261" x1="124.948" y1="125" x2="424.362" y2="221.149" gradientUnits="userSpaceOnUse">
<stop stop-color="#FF8008"/>
<stop offset="1" stop-color="#FFC837"/>
</linearGradient>
<clipPath id="clip0_451_261">
<rect width="250" height="250" fill="white" transform="translate(125 125)"/>
</clipPath>
</defs>
</svg>
