<svg width="81" height="80" viewBox="0 0 81 80" fill="none" xmlns="http://www.w3.org/2000/svg">
<rect x="0.5" width="80" height="80" rx="40" fill="white"/>
<path d="M35.2917 28.5417V34.7917H29.0417V28.5417H35.2917ZM38.4167 25.4167H25.9167V37.9167H38.4167V25.4167ZM35.2917 45.2083V51.4583H29.0417V45.2083H35.2917ZM38.4167 42.0833H25.9167V54.5833H38.4167V42.0833ZM51.9583 28.5417V34.7917H45.7083V28.5417H51.9583ZM55.0833 25.4167H42.5833V37.9167H55.0833V25.4167ZM42.5833 42.0833H45.7083V45.2083H42.5833V42.0833ZM45.7083 45.2083H48.8333V48.3333H45.7083V45.2083ZM48.8333 42.0833H51.9583V45.2083H48.8333V42.0833ZM42.5833 48.3333H45.7083V51.4583H42.5833V48.3333ZM45.7083 51.4583H48.8333V54.5833H45.7083V51.4583ZM48.8333 48.3333H51.9583V51.4583H48.8333V48.3333ZM51.9583 45.2083H55.0833V48.3333H51.9583V45.2083ZM51.9583 51.4583H55.0833V54.5833H51.9583V51.4583ZM59.25 29.5833C58.1042 29.5833 57.1667 28.6458 57.1667 27.5V23.3333H53C51.8542 23.3333 50.9167 22.3958 50.9167 21.25C50.9167 20.1042 51.8542 19.1667 53 19.1667H59.25C60.3958 19.1667 61.3333 20.1042 61.3333 21.25V27.5C61.3333 28.6458 60.3958 29.5833 59.25 29.5833ZM61.3333 58.75V52.5C61.3333 51.3542 60.3958 50.4167 59.25 50.4167C58.1042 50.4167 57.1667 51.3542 57.1667 52.5V56.6667H53C51.8542 56.6667 50.9167 57.6042 50.9167 58.75C50.9167 59.8958 51.8542 60.8333 53 60.8333H59.25C60.3958 60.8333 61.3333 59.8958 61.3333 58.75ZM21.75 60.8333H28C29.1458 60.8333 30.0833 59.8958 30.0833 58.75C30.0833 57.6042 29.1458 56.6667 28 56.6667H23.8333V52.5C23.8333 51.3542 22.8958 50.4167 21.75 50.4167C20.6042 50.4167 19.6667 51.3542 19.6667 52.5V58.75C19.6667 59.8958 20.6042 60.8333 21.75 60.8333ZM19.6667 21.25V27.5C19.6667 28.6458 20.6042 29.5833 21.75 29.5833C22.8958 29.5833 23.8333 28.6458 23.8333 27.5V23.3333H28C29.1458 23.3333 30.0833 22.3958 30.0833 21.25C30.0833 20.1042 29.1458 19.1667 28 19.1667H21.75C20.6042 19.1667 19.6667 20.1042 19.6667 21.25Z" fill="url(#paint0_linear_504_2451)"/>
<defs>
<linearGradient id="paint0_linear_504_2451" x1="19.6667" y1="19.1667" x2="69.5676" y2="35.1904" gradientUnits="userSpaceOnUse">
<stop stop-color="#FF8008"/>
<stop offset="1" stop-color="#FFC837"/>
</linearGradient>
</defs>
</svg>
